<?xml version="1.0" standalone="no"?>
<!DOCTYPE svg PUBLIC "-//W3C//DTD SVG 20010904//EN"
 "http://www.w3.org/TR/2001/REC-SVG-20010904/DTD/svg10.dtd">
<svg version="1.0" xmlns="http://www.w3.org/2000/svg"
 width="16.000000pt" height="16.000000pt" viewBox="0 0 16.000000 16.000000"
 preserveAspectRatio="xMidYMid meet">
<metadata>
Created by potrace 1.11, written by Peter Selinger 2001-2013
</metadata>
<g transform="translate(0.000000,16.000000) scale(0.003704,-0.003704)"
fill="#000000" stroke="none">
<path d="M1980 4129 c-627 -71 -1196 -435 -1513 -968 -201 -338 -288 -642
-288 -1006 0 -349 58 -607 206 -910 248 -511 675 -876 1215 -1038 240 -72 383
-91 645 -84 314 8 549 65 830 202 430 209 753 546 954 994 191 428 219 945 76
1398 -124 390 -358 729 -689 992 -133 106 -189 142 -323 210 -354 177 -748
251 -1113 210z m-666 -1191 c-13 -21 -14 -62 -1 -71 9 -7 9 -10 -1 -14 -6 -2
-9 -9 -6 -14 3 -6 0 -16 -6 -24 -7 -8 -10 -22 -6 -30 4 -12 10 -14 25 -5 17 8
22 6 32 -11 6 -12 7 -19 2 -16 -10 6 -53 -128 -53 -166 0 -13 -4 -27 -9 -32
-23 -25 -33 -583 -10 -569 4 2 10 -20 14 -49 4 -28 9 -59 10 -67 6 -44 27
-100 35 -95 6 3 7 -1 4 -9 -3 -8 0 -23 6 -33 10 -16 11 -16 6 0 -10 30 3 18
18 -18 8 -19 20 -35 26 -35 6 0 8 -4 5 -10 -3 -5 -1 -10 6 -10 7 0 10 -3 6 -6
-3 -3 8 -24 24 -47 16 -22 29 -44 29 -50 0 -5 14 -23 30 -39 17 -15 30 -32 30
-36 0 -4 19 -25 43 -45 59 -53 65 -57 77 -57 5 0 10 -8 10 -17 0 -9 3 -13 6
-10 4 4 23 -6 43 -22 20 -15 56 -39 81 -52 25 -13 47 -27 48 -31 2 -5 11 -8
21 -8 9 0 21 -4 26 -8 6 -5 30 -17 55 -26 25 -10 65 -27 90 -38 108 -48 110
-50 100 -68 -7 -14 0 -19 46 -33 30 -9 62 -17 72 -17 9 0 31 -9 47 -20 17 -11
42 -20 57 -20 15 0 29 -4 33 -10 3 -5 12 -7 19 -4 17 7 32 -14 19 -27 -19 -19
-255 -41 -388 -36 -111 4 -148 10 -253 41 -140 41 -147 44 -260 120 -45 30
-89 53 -96 50 -23 -9 -224 199 -288 296 -86 132 -92 142 -110 190 -9 25 -17
39 -17 32 -1 -8 11 -44 25 -80 45 -114 157 -272 280 -397 71 -71 86 -95 37
-57 -70 54 -189 189 -249 279 -97 147 -167 321 -199 492 -16 86 -21 288 -6
261 7 -14 23 -109 37 -227 3 -29 9 -55 14 -58 4 -2 4 14 0 38 -9 50 -21 220
-14 195 12 -41 20 -14 12 40 -31 203 6 350 130 510 31 41 74 99 95 130 42 63
127 161 140 162 5 0 5 -5 1 -12z m-974 -1010 c48 -325 144 -586 307 -831 86
-130 145 -202 267 -322 56 -55 92 -92 80 -82 -29 24 -41 21 -18 -5 10 -13 -13
6 -53 40 -236 206 -437 520 -536 838 -48 151 -95 466 -68 450 5 -3 14 -43 21
-88z m997 -130 c-3 -7 -5 -2 -5 12 0 14 2 19 5 13 2 -7 2 -19 0 -25z m1010
-774 c-3 -3 -12 -4 -19 -1 -8 3 -5 6 6 6 11 1 17 -2 13 -5z"/>
<path d="M1250 2064 c0 -10 5 -26 10 -34 8 -11 9 -7 4 15 -8 37 -14 45 -14 19z"/>
<path d="M900 767 c0 -2 15 -16 33 -33 l32 -29 -29 33 c-28 30 -36 37 -36 29z"/>
</g>
</svg>
